<svg width="172" height="150" viewBox="0 0 172 150" fill="none" xmlns="http://www.w3.org/2000/svg">
<path d="M10.9999 0C16.9162 0 21.7142 4.79799 21.7142 10.7143V123.214C21.7142 126.161 24.1115 128.571 27.0714 128.571H161C166.926 128.571 171.714 133.359 171.714 139.286C171.714 145.212 166.926 150 161 150H27.0714C12.2789 150 0.285645 138.013 0.285645 123.214V10.7143C0.285645 4.79799 5.08364 0 10.9999 0ZM53.8571 64.2857C59.7834 64.2857 64.5714 69.0737 64.5714 75V96.4286C64.5714 102.355 59.7834 107.143 53.8571 107.143C47.9307 107.143 43.1428 102.355 43.1428 96.4286V75C43.1428 69.0737 47.9307 64.2857 53.8571 64.2857ZM96.7142 96.4286C96.7142 102.355 91.9263 107.143 85.9999 107.143C80.0736 107.143 75.2856 102.355 75.2856 96.4286V42.8571C75.2856 36.9308 80.0736 32.1429 85.9999 32.1429C91.9263 32.1429 96.7142 36.9308 96.7142 42.8571V96.4286ZM118.143 53.5714C124.069 53.5714 128.857 58.3594 128.857 64.2857V96.4286C128.857 102.355 124.069 107.143 118.143 107.143C112.216 107.143 107.429 102.355 107.429 96.4286V64.2857C107.429 58.3594 112.216 53.5714 118.143 53.5714ZM161 96.4286C161 102.355 156.212 107.143 150.286 107.143C144.359 107.143 139.571 102.355 139.571 96.4286V21.4286C139.571 15.5123 144.359 10.7143 150.286 10.7143C156.212 10.7143 161 15.5123 161 21.4286V96.4286Z" fill="#FBF6F6"/>
</svg>
