<svg width="30" height="30" viewBox="0 0 30 30" fill="none" xmlns="http://www.w3.org/2000/svg">
<g clip-path="url(#clip0_237_998)">
<path d="M15 0C6.71484 0 0 6.71484 0 15C0 23.2852 6.71484 30 15 30C23.2852 30 30 23.2852 30 15C30 6.71484 23.2852 0 15 0ZM21.0117 16.3242L14.4492 22.8867C13.7168 23.6191 12.5303 23.6191 11.7979 22.8867C11.0654 22.1543 11.0654 20.9678 11.7979 20.2354L17.0391 15L11.8008 9.76172C11.0684 9.0293 11.0684 7.84277 11.8008 7.11035C12.5332 6.37793 13.7197 6.37793 14.4521 7.11035L21.0146 13.6729C21.3809 14.0391 21.5625 14.5195 21.5625 15C21.5625 15.4805 21.3809 15.9609 21.0117 16.3242Z" fill="#1C1C1C"/>
</g>
<defs>
<clipPath id="clip0_237_998">
<rect width="30" height="30" rx="15" fill="white"/>
</clipPath>
</defs>
</svg>
