<svg width="30" height="30" viewBox="0 0 30 30" fill="none" xmlns="http://www.w3.org/2000/svg">
<g clip-path="url(#clip0_237_996)">
<path d="M19.6289 10.2539L13.125 16.7637L10.3184 14.0039C9.76904 13.4546 8.8793 13.4546 8.32969 14.0039C7.78008 14.5532 7.78037 15.443 8.32969 15.9926L12.0797 19.7426C12.4043 20.0215 12.7617 20.1562 13.125 20.1562C13.4883 20.1562 13.8445 20.0189 14.1193 19.7443L21.6193 12.2443C22.1687 11.695 22.1687 10.8052 21.6193 10.2556C21.07 9.706 20.1797 9.70898 19.6289 10.2539ZM15 0C6.71484 0 0 6.71484 0 15C0 23.2852 6.71484 30 15 30C23.2852 30 30 23.2852 30 15C30 6.71484 23.2852 0 15 0ZM15 27.1875C8.2793 27.1875 2.8125 21.7201 2.8125 15C2.8125 8.27988 8.2793 2.8125 15 2.8125C21.7207 2.8125 27.1875 8.27988 27.1875 15C27.1875 21.7201 21.7207 27.1875 15 27.1875Z" fill="#00D62F"/>
</g>
<defs>
<clipPath id="clip0_237_996">
<rect width="30" height="30" fill="white"/>
</clipPath>
</defs>
</svg>
