<svg width="15" height="15" viewBox="0 0 15 15" fill="none" xmlns="http://www.w3.org/2000/svg">
<g clip-path="url(#clip0_244_362)">
<path d="M14.7844 13.327L12.3587 11.1091C13.0934 10.2357 13.7131 9.17371 14.1683 7.98918C14.2129 7.86805 14.2496 7.65914 14.2496 7.52351C14.2496 7.38742 14.213 7.17898 14.1683 7.05785C12.8968 3.68363 10.3808 1.4223 7.50031 1.4223C6.03148 1.4223 4.65969 2.0225 3.49719 3.05254L0.909689 0.639891C0.806564 0.54591 0.684221 0.5 0.563283 0.5C0.396409 0.5 0.230682 0.586352 0.120104 0.751262C-0.0718019 1.03673 -0.0291925 1.44935 0.215448 1.67275L14.0693 14.3356C14.3154 14.5599 14.6686 14.5088 14.8589 14.2243C15.0727 13.9641 15.0282 13.5512 14.7844 13.327ZM9.24382 8.26016L7.33015 6.53477C7.40867 6.27773 7.47898 6.02891 7.47898 5.75C7.47898 5.60016 7.45848 5.4566 7.42781 5.31852C7.46726 5.31797 7.48367 5.3125 7.50007 5.3125C8.5339 5.3125 9.37507 6.29387 9.37507 7.50137C9.37507 7.7707 9.32116 8.02226 9.24382 8.26016ZM10.1532 9.09141C10.3688 8.61562 10.5001 8.07969 10.5001 7.50273C10.5001 5.56953 9.1571 4 7.50007 4C6.74539 4 6.06336 4.33359 5.53836 4.87227L4.41336 3.84414C5.34382 3.09848 6.40085 2.6875 7.50007 2.6875C9.83163 2.6875 11.9813 4.5332 13.1157 7.47539C12.6924 8.57953 12.1217 9.51059 11.4608 10.2617L10.1532 9.09141ZM7.50007 11C7.8146 11 8.1132 10.9277 8.39796 10.8229L7.09695 9.63281C6.54148 9.49062 6.08211 9.05586 5.83132 8.47617L4.51883 7.27578C4.51414 7.35234 4.50008 7.42344 4.50008 7.5C4.50008 9.4332 5.84304 11 7.50007 11ZM7.50007 12.3125C5.16851 12.3125 3.01883 10.4668 1.88445 7.52461C2.13828 6.86234 2.44906 6.26598 2.79406 5.72375L1.90508 4.88594C1.48859 5.53508 1.12531 6.25422 0.831408 7.03488C0.786643 7.15547 0.728986 7.36328 0.728986 7.5C0.728986 7.63609 0.765596 7.84453 0.810291 7.96566C2.08177 11.3399 4.59779 13.6012 7.47825 13.6012C8.54372 13.6012 9.5588 13.287 10.4806 12.7224L9.47583 11.8039C8.85945 12.132 8.19148 12.3125 7.50007 12.3125Z" fill="#545454"/>
</g>
<defs>
<clipPath id="clip0_244_362">
<rect width="15" height="14" fill="white" transform="translate(0 0.5)"/>
</clipPath>
</defs>
</svg>
