<svg width="41" height="40" viewBox="0 0 41 40" fill="none" xmlns="http://www.w3.org/2000/svg">
<path d="M35.7162 0.000976562H4.28767C3.15103 0.000976563 2.06094 0.452506 1.25721 1.25623C0.453482 2.05996 0.00195313 3.15005 0.00195312 4.28669L0.00195313 35.7153C0.00195313 36.8519 0.453482 37.942 1.25721 38.7457C2.06094 39.5495 3.15103 40.001 4.28767 40.001H16.5421V26.4019H10.9171V20.001H16.5421V15.1224C16.5421 9.5733 19.8457 6.50812 24.9055 6.50812C27.3287 6.50812 29.8627 6.94026 29.8627 6.94026V12.3867H27.0707C24.3198 12.3867 23.4618 14.0938 23.4618 15.8447V20.001H29.6028L28.6207 26.4019H23.4618V40.001H35.7162C36.8529 40.001 37.943 39.5495 38.7467 38.7457C39.5504 37.942 40.002 36.8519 40.002 35.7153V4.28669C40.002 3.15005 39.5504 2.05996 38.7467 1.25623C37.943 0.452506 36.8529 0.000976563 35.7162 0.000976562Z" fill="#FBF6F6"/>
</svg>
