<svg width="40" height="41" viewBox="0 0 40 41" fill="none" xmlns="http://www.w3.org/2000/svg">
<path d="M39.9395 30.2348L38.1231 38.1098C37.8679 39.2231 36.8895 40.002 35.7434 40.002C16.0332 40.0004 0.00195312 23.9692 0.00195312 4.25827C0.00195312 3.11296 0.780781 2.13327 1.89414 1.87936L9.76914 0.0629598C10.916 -0.202821 12.0879 0.392491 12.5645 1.47858L16.1988 9.95514C16.6237 10.9536 16.3371 12.1169 15.4973 12.8028L11.291 16.1801C13.9457 21.5879 18.3426 25.9848 23.752 28.6411L27.1957 24.4379C27.8745 23.5957 29.0465 23.3043 30.0449 23.7368L38.5215 27.3703C39.541 27.9067 40.2051 29.0942 39.9395 30.2348Z" fill="#FBF6F6"/>
</svg>
