<svg width="196" height="150" viewBox="0 0 196 150" fill="none" xmlns="http://www.w3.org/2000/svg">
<path d="M125.083 104.464H157.583C162.069 104.464 165.708 100.865 165.708 96.4286C165.708 91.9922 162.069 88.3929 157.583 88.3929H125.083C120.598 88.3929 116.958 91.9922 116.958 96.4286C116.958 100.865 120.615 104.464 125.083 104.464ZM70.9167 96.4286C82.8841 96.4286 92.5833 86.8359 92.5833 75C92.5833 63.1641 82.8841 53.5714 70.9167 53.5714C58.9492 53.5714 49.25 63.1641 49.25 75C49.25 86.8192 58.9661 96.4286 70.9167 96.4286ZM173.833 0H22.1667C10.1992 0 0.5 9.59263 0.5 21.4286V128.571C0.5 140.407 10.1992 150 22.1667 150H173.833C185.801 150 195.5 140.407 195.5 128.571V21.4286C195.5 9.59263 185.784 0 173.833 0ZM179.25 128.571C179.25 131.525 176.82 133.929 173.833 133.929H108.833C108.833 119.136 96.7068 107.143 81.75 107.143H60.0833C45.1198 107.143 33 119.129 33 133.929H22.1667C19.1801 133.929 16.75 131.525 16.75 128.571V42.8571H179.25V128.571ZM125.083 77.6786H157.583C162.069 77.6786 165.708 74.0792 165.708 69.6429C165.708 65.2065 162.069 61.6071 157.583 61.6071H125.083C120.598 61.6071 116.958 65.2065 116.958 69.6429C116.958 74.0792 120.615 77.6786 125.083 77.6786Z" fill="#FBF6F6"/>
</svg>
