<svg width="132" height="150" viewBox="0 0 132 150" fill="none" xmlns="http://www.w3.org/2000/svg">
<path d="M98.8671 37.5C89.4765 37.5 75.3849 42.1963 66.0002 46.8838C56.6068 42.1963 42.788 37.5029 33.3975 37.5C9.65711 37.5 0.387903 61.6699 0.267557 84.375C0.111645 113.663 19.0457 150 46.956 150C56.3466 150 61.0418 145.312 65.7371 145.312C70.4323 145.312 75.1276 150 84.5181 150C112.69 150 131.588 114.023 131.207 84.375C131.646 61.9922 122.343 37.5 98.8671 37.5ZM94.1718 9.375V0H84.7813C71.8106 0 61.305 10.4941 61.305 23.4375V32.8125H70.6955C83.6661 32.8125 94.1718 22.3184 94.1718 9.375Z" fill="#FBF6F6"/>
</svg>
