<svg width="138" height="150" viewBox="0 0 138 150" fill="none" xmlns="http://www.w3.org/2000/svg">
<path d="M66.5753 119.561C63.9665 122.549 59.3013 122.549 56.4163 119.561L36.7734 100.811C33.9191 98.3203 33.9191 93.8672 36.7734 91.1133C39.6585 88.3887 44.3237 88.3887 46.9325 91.1133L61.6339 104.912L90.7913 77.0508C93.6763 74.3262 98.3415 74.3262 100.95 77.0508C104.081 79.8047 104.081 84.2578 100.95 86.748L66.5753 119.561ZM39.5357 0C43.6177 0 46.9018 3.14941 46.9018 7.03125V18.75H91.0982V7.03125C91.0982 3.14941 94.3823 0 98.4643 0C102.546 0 105.83 3.14941 105.83 7.03125V18.75H118.107C128.941 18.75 137.75 27.1436 137.75 37.5V131.25C137.75 141.592 128.941 150 118.107 150H19.8929C9.04325 150 0.25 141.592 0.25 131.25V37.5C0.25 27.1436 9.04325 18.75 19.8929 18.75H32.1696V7.03125C32.1696 3.14941 35.4537 0 39.5357 0ZM123.018 56.25H14.9821V131.25C14.9821 133.828 17.1797 135.938 19.8929 135.938H118.107C120.808 135.938 123.018 133.828 123.018 131.25V56.25Z" fill="#FBF6F6"/>
</svg>
