<svg width="172" height="150" viewBox="0 0 172 150" fill="none" xmlns="http://www.w3.org/2000/svg">
<path d="M65.4419 0H106.558C113.489 0 119.616 4.42634 121.792 10.9888L125.274 21.4286H150.286C162.105 21.4286 171.714 31.0379 171.714 42.8571V128.571C171.714 140.391 162.105 150 150.286 150H21.7142C9.87828 150 0.285645 140.391 0.285645 128.571V42.8571C0.285645 31.0379 9.87828 21.4286 21.7142 21.4286H46.7254L50.2075 10.9888C52.3839 4.42634 58.5111 0 65.4419 0ZM85.9999 117.857C103.745 117.857 118.143 103.46 118.143 85.7143C118.143 67.6674 103.745 53.5714 85.9999 53.5714C67.953 53.5714 53.8571 67.6674 53.8571 85.7143C53.8571 103.46 67.953 117.857 85.9999 117.857Z" fill="#FBF6F6"/>
</svg>
