<svg width="30" height="30" viewBox="0 0 30 30" fill="none" xmlns="http://www.w3.org/2000/svg">
<path d="M19.6934 10.2539C19.144 9.70459 18.2543 9.70459 17.7047 10.2539L15 13.0137L12.1934 10.2539C11.644 9.70459 10.7543 9.70459 10.2047 10.2539C9.65508 10.8032 9.65537 11.693 10.2047 12.2426L12.9604 14.9982L10.2539 17.7539C9.70459 18.3032 9.70459 19.193 10.2539 19.7426C10.8031 20.2918 11.693 20.2922 12.2426 19.7426L15 16.9863L17.7557 19.742C18.3049 20.2912 19.1947 20.2917 19.7443 19.742C20.2937 19.1927 20.2937 18.3029 19.7443 17.7533L16.9887 14.9977L19.7443 12.242C20.291 11.6953 20.291 10.8047 19.6934 10.2539ZM15 0C6.71484 0 0 6.71484 0 15C0 23.2852 6.71484 30 15 30C23.2852 30 30 23.2852 30 15C30 6.71484 23.2852 0 15 0ZM15 27.1875C8.2793 27.1875 2.8125 21.7201 2.8125 15C2.8125 8.27988 8.2793 2.8125 15 2.8125C21.7207 2.8125 27.1875 8.27988 27.1875 15C27.1875 21.7201 21.7207 27.1875 15 27.1875Z" fill="#FFAE12"/>
</svg>
