<svg width="15" height="15" viewBox="0 0 15 15" fill="none" xmlns="http://www.w3.org/2000/svg">
<path d="M14.9089 7.01055C13.4974 3.6582 10.7005 1.375 7.5 1.375C4.29948 1.375 1.50234 3.66094 0.0903385 7.01055C0.0407031 7.15547 0 7.36328 0 7.5C0 7.63609 0.0406771 7.84453 0.0903385 7.96566C1.50312 11.3418 4.29948 13.625 7.5 13.625C10.7005 13.625 13.4974 11.3396 14.9089 7.98945C14.9583 7.84453 15 7.61211 15 7.5C15 7.36328 14.9583 7.15547 14.9089 7.01055ZM7.5 12.3125C4.90937 12.3125 2.52083 10.4668 1.26042 7.52461C2.5263 4.53047 4.91146 2.6875 7.5 2.6875C10.0906 2.6875 12.4792 4.5332 13.7396 7.47539C12.4505 10.4695 10.0885 12.3125 7.5 12.3125ZM7.5 4C5.65885 4 4.16667 5.5668 4.16667 7.5C4.16667 9.4332 5.65964 11 7.5 11C9.33958 11 10.8333 9.43266 10.8333 7.50273C10.8333 5.56953 9.34115 4 7.5 4ZM7.5 9.6875C6.3513 9.6875 5.41667 8.70613 5.41667 7.5C5.41667 7.47955 5.42185 7.4606 5.42241 7.44028C5.55469 7.47539 5.6901 7.5 5.83333 7.5C6.75391 7.5 7.5 6.7166 7.5 5.75C7.5 5.60016 7.47721 5.45688 7.44313 5.31852C7.46354 5.31797 7.48177 5.3125 7.5 5.3125C8.6487 5.3125 9.58333 6.29387 9.58333 7.50137C9.58333 8.70586 8.64844 9.6875 7.5 9.6875Z" fill="#545454"/>
</svg>
