<svg width="30" height="30" viewBox="0 0 30 30" fill="none" xmlns="http://www.w3.org/2000/svg">
<g clip-path="url(#clip0_237_763)">
<path d="M29.2674 19.4531C29.2674 19.1215 29.0851 18.801 28.7868 18.6287L26.0558 17.052C26.1796 16.3828 26.2499 15.6504 26.2499 15C26.2499 14.3496 26.1771 13.6143 26.0542 12.948L28.7852 11.3713C29.0836 11.199 29.2659 10.8785 29.2659 10.5469C29.2659 9.7207 26.8061 4.74375 25.5241 4.74375C25.3581 4.74375 25.1908 4.78632 25.0409 4.87283L22.3034 6.45369C21.2635 5.56523 20.0624 4.86914 18.7499 4.40391V1.24688C18.7499 0.806074 18.4474 0.410156 18.0157 0.319922C17.0389 0.11584 16.037 0 14.9999 0C13.9628 0 12.9579 0.11584 11.9835 0.31998C11.5546 0.410391 11.2499 0.80625 11.2499 1.24688V4.40391C9.93738 4.86914 8.73621 5.56523 7.6991 6.45117L4.95867 4.87266C4.80926 4.78594 4.64168 4.74316 4.47586 4.74316C3.32039 4.74316 0.734062 9.54492 0.734062 10.5463C0.734062 10.8779 0.916406 11.1984 1.21471 11.3707L3.94576 12.9475C3.82254 13.6172 3.74988 14.2969 3.74988 15C3.74988 15.7031 3.82265 16.3857 3.94558 17.052L1.21453 18.6287C0.916172 18.801 0.733887 19.1215 0.733887 19.4531C0.733887 20.2793 3.19365 25.2563 4.47568 25.2563C4.64162 25.2563 4.80896 25.2137 4.95885 25.1272L7.69634 23.5463C8.73621 24.4336 9.93738 25.1309 11.2499 25.5937V28.7508C11.2499 29.1916 11.5523 29.5875 11.9841 29.6777C12.9608 29.8828 13.9628 30 14.9471 30C15.9315 30 16.9891 29.8842 17.9635 29.68C18.4452 29.5371 18.7499 29.1914 18.7499 28.752V25.5949C20.0635 25.1298 21.2653 24.4336 22.3036 23.5459L25.0411 25.1268C25.1909 25.2133 25.3584 25.2558 25.5242 25.2558C26.6776 25.2539 29.2674 20.4551 29.2674 19.4531ZM14.9999 19.6875C12.4153 19.6875 10.3124 17.5846 10.3124 15C10.3124 12.4154 12.4159 10.3125 14.9999 10.3125C17.5839 10.3125 19.6874 12.4154 19.6874 15C19.6874 17.5846 17.5839 19.6875 14.9999 19.6875Z" fill="#0D0D0D"/>
</g>
<defs>
<clipPath id="clip0_237_763">
<rect width="30" height="30" rx="15" fill="white"/>
</clipPath>
</defs>
</svg>
