<svg width="41" height="40" viewBox="0 0 41 40" fill="none" xmlns="http://www.w3.org/2000/svg">
<path d="M20.0064 9.74548C14.331 9.74548 9.75321 14.3243 9.75321 20.001C9.75321 25.6776 14.331 30.2565 20.0064 30.2565C25.6818 30.2565 30.2596 25.6776 30.2596 20.001C30.2596 14.3243 25.6818 9.74548 20.0064 9.74548ZM20.0064 26.6684C16.3388 26.6684 13.3405 23.6783 13.3405 20.001C13.3405 16.3236 16.3299 13.3336 20.0064 13.3336C23.6829 13.3336 26.6723 16.3236 26.6723 20.001C26.6723 23.6783 23.674 26.6684 20.0064 26.6684ZM33.0706 9.32598C33.0706 10.6559 31.9997 11.718 30.679 11.718C29.3494 11.718 28.2875 10.647 28.2875 9.32598C28.2875 8.00499 29.3583 6.93392 30.679 6.93392C31.9997 6.93392 33.0706 8.00499 33.0706 9.32598ZM39.8614 11.7537C39.7097 8.54945 38.978 5.71112 36.6311 3.37262C34.2931 1.03411 31.4554 0.302215 28.2518 0.141554C24.9501 -0.0458827 15.0538 -0.0458827 11.7521 0.141554C8.55745 0.293289 5.71974 1.02519 3.37284 3.36369C1.02594 5.70219 0.303124 8.54053 0.1425 11.7448C-0.0448957 15.0473 -0.0448957 24.9457 0.1425 28.2482C0.294201 31.4525 1.02594 34.2908 3.37284 36.6293C5.71974 38.9678 8.54852 39.6997 11.7521 39.8604C15.0538 40.0478 24.9501 40.0478 28.2518 39.8604C31.4554 39.7087 34.2931 38.9768 36.6311 36.6293C38.969 34.2908 39.7008 31.4525 39.8614 28.2482C40.0488 24.9457 40.0488 15.0562 39.8614 11.7537ZM35.5959 31.7917C34.8999 33.5411 33.5524 34.8889 31.7945 35.594C29.162 36.6383 22.9155 36.3973 20.0064 36.3973C17.0973 36.3973 10.8419 36.6293 8.21835 35.594C6.46933 34.8978 5.12186 33.55 4.4169 31.7917C3.37284 29.1586 3.61378 22.9107 3.61378 20.001C3.61378 17.0912 3.38176 10.8344 4.4169 8.21028C5.11294 6.46087 6.4604 5.1131 8.21835 4.40798C10.8508 3.36369 17.0973 3.60468 20.0064 3.60468C22.9155 3.60468 29.1709 3.37262 31.7945 4.40798C33.5435 5.10418 34.891 6.45194 35.5959 8.21028C36.64 10.8433 36.3991 17.0912 36.3991 20.001C36.3991 22.9107 36.64 29.1675 35.5959 31.7917Z" fill="#FBF6F6"/>
</svg>
