<svg width="170" height="150" viewBox="0 0 170 150" fill="none" xmlns="http://www.w3.org/2000/svg">
<path d="M28.8297 89.0918C28.8297 85.5293 30.284 82.1104 32.8202 79.7139L53.922 59.7686C54.4047 59.313 55.0258 59.0915 55.5635 58.7203C52.5558 51.7969 46.0904 46.875 38.1914 46.875H19.468C9.12628 46.875 0.744629 55.2832 0.744629 65.625V93.75C0.744629 98.9268 4.93692 103.125 9.84303 103.125L10.1063 140.625C10.1063 145.802 14.2986 150 19.468 150H38.1914C43.3609 150 47.5531 145.802 47.5531 140.625V112.386L32.8202 98.4609C30.0292 96.0644 28.8297 92.6367 28.8297 89.0918ZM141.17 37.5C151.521 37.5 159.894 29.1152 159.894 18.75C159.894 8.38477 151.521 0 141.17 0C130.82 0 122.447 8.38477 122.447 18.75C122.447 29.1152 130.814 37.5 141.17 37.5ZM28.8297 37.5C39.1803 37.5 47.5531 29.1152 47.5531 18.75C47.5531 8.38477 39.1861 0 28.8297 0C18.4734 0 10.1063 8.38477 10.1063 18.75C10.1063 29.1152 18.4821 37.5 28.8297 37.5ZM130.755 86.5137L109.662 66.5918C108.641 65.6271 107.144 65.3634 105.856 65.9183C104.572 66.4746 103.723 67.7344 103.723 69.1406V79.6875H66.2765V69.1406C66.2765 67.7358 65.4407 66.4649 64.152 65.9092C62.8537 65.3613 61.3616 65.3613 60.3377 66.5918L39.2446 86.5137C37.8389 87.8423 37.8389 90.3047 39.2446 91.6318L60.3436 111.574C61.3646 112.538 62.8616 112.802 64.1497 112.247C65.4281 111.709 66.2765 110.42 66.2765 109.014V98.4375H103.723V109.025C103.723 110.43 104.559 111.702 105.848 112.26C107.137 112.814 108.634 112.55 109.654 111.586L130.753 91.6438C132.16 90.3223 132.16 87.8613 130.755 86.5137ZM150.532 46.875H131.808C124.173 46.875 117.187 51.7881 114.437 58.7168C114.976 59.0892 115.598 59.3106 116.082 59.768L137.181 79.7074C139.707 82.0898 141.17 85.5176 141.17 89.0918C141.171 92.6543 139.716 96.0732 137.18 98.4697L122.447 112.383V140.625C122.447 145.802 126.639 150 131.808 150H150.532C155.701 150 159.894 145.802 159.894 140.625V103.125C165.063 103.125 169.255 98.9268 169.255 93.75V65.625C169.255 55.2832 160.859 46.875 150.532 46.875Z" fill="#FBF6F6"/>
</svg>
